<?xml version="1.0" standalone="no"?>
<!DOCTYPE svg PUBLIC "-//W3C//DTD SVG 20010904//EN"
 "http://www.w3.org/TR/2001/REC-SVG-20010904/DTD/svg10.dtd">
<svg version="1.0" xmlns="http://www.w3.org/2000/svg"
 width="64.000000pt" height="64.000000pt" viewBox="0 0 64.000000 64.000000"
 preserveAspectRatio="xMidYMid meet">

<g transform="translate(0.000000,64.000000) scale(0.100000,-0.100000)"
fill="#000000" stroke="none">
<path d="M120 590 c-11 -11 -20 -31 -20 -45 0 -16 -6 -25 -15 -25 -8 0 -15 -4
-15 -10 0 -5 7 -10 15 -10 13 0 15 -27 15 -185 0 -158 -2 -185 -15 -185 -8 0
-15 -4 -15 -10 0 -5 7 -10 15 -10 8 0 15 -9 15 -20 0 -11 9 -29 20 -40 19 -19
33 -20 215 -20 182 0 196 1 215 20 19 19 20 33 20 270 0 237 -1 251 -20 270
-19 19 -33 20 -215 20 -182 0 -196 -1 -215 -20z m415 -270 l0 -255 -198 -3
c-172 -2 -198 0 -203 13 -4 9 1 22 12 30 18 14 18 16 2 29 -16 12 -18 33 -18
190 0 150 2 176 15 176 8 0 15 5 15 10 0 6 -7 13 -15 16 -15 6 -20 35 -8 48 4
3 95 5 202 4 l196 -3 0 -255z"/>
<path d="M297 479 c-62 -36 -26 -139 49 -139 26 0 64 47 64 79 0 52 -66 87
-113 60z m71 -31 c26 -26 8 -78 -27 -78 -18 0 -51 29 -51 46 0 34 54 56 78 32z"/>
<path d="M249 290 c-27 -27 -30 -35 -27 -87 l3 -58 110 0 110 0 3 44 c7 89
-31 131 -116 131 -46 0 -58 -4 -83 -30z m151 -20 c13 -13 20 -33 20 -60 l0
-40 -85 0 -85 0 0 40 c0 55 26 80 85 80 32 0 51 -6 65 -20z"/>
</g>
</svg>
